<svg id="netease-music" data-name="netease-music" xmlns="http://www.w3.org/2000/svg" viewBox="0 0 256 256" width="20px"><defs><style>.cls-1{fill:#fff;}.cls-2{fill:#e20000}</style></defs><circle class="cls-2" cx="128" cy="128" r="128"/><path class="cls-1" d="M159.52,98.67c1.09,3.54,2.2,7,3.22,10.48,1.12,3.79,2.23,7.58,3.2,11.4a42.42,42.42,0,0,1,1.2,13.69c-1,13.42-7.75,23.25-19.33,29.87a35.18,35.18,0,0,1-12.58,4.13,35.63,35.63,0,0,1-7.58.31,34.67,34.67,0,0,1-16.12-5.15c-9.28-5.8-15-14.21-17.58-24.75a41,41,0,0,1-1.16-9.36c0-2.13-.12-4.27,0-6.39a46.52,46.52,0,0,1,6.63-21.21A50.62,50.62,0,0,1,122,82c2.78-1.3,5.74-2.2,8.62-3.28l.56-.2c-.54-1.93-1.09-3.84-1.59-5.77-.78-3-1.64-6-2.26-9A24.89,24.89,0,0,1,129.73,47,32.51,32.51,0,0,1,151,29.89a30.1,30.1,0,0,1,11-.75,42.05,42.05,0,0,1,22.72,9.51,12.71,12.71,0,0,1,4.88,11c-.15,3.06-1.21,5.7-3.86,7.47a10.77,10.77,0,0,1-7.19,1.69,14,14,0,0,1-7.5-3.07,24.47,24.47,0,0,0-8.48-4.45,13,13,0,0,0-6.19-.28,8.09,8.09,0,0,0-6,5.36,11.67,11.67,0,0,0-.33,7.45c1,3.95,2.09,7.88,3.13,11.82.1.37.31.37.61.39a63.47,63.47,0,0,1,14.47,2.49,59,59,0,0,1,18.86,9.81,71.54,71.54,0,0,1,19.67,22,65.24,65.24,0,0,1,7.48,20.83,75,75,0,0,1,1.1,15.4A72.7,72.7,0,0,1,202.3,186a81.26,81.26,0,0,1-40.72,31.24,94,94,0,0,1-16.76,4.25,96.06,96.06,0,0,1-19.75,1.08,83.5,83.5,0,0,1-25.74-5.32,88.17,88.17,0,0,1-33.58-22.37,92.25,92.25,0,0,1-21.9-38.74,88.29,88.29,0,0,1-2.66-13.48,91.6,91.6,0,0,1-.59-15.26A88.2,88.2,0,0,1,47.54,97,91.25,91.25,0,0,1,73,62.46a88.53,88.53,0,0,1,27-15.77c4.11-1.5,8.15-1.27,11.8,1.35a9.8,9.8,0,0,1,4.07,7.24c.48,4.83-1.88,8.22-5.82,10.6a43,43,0,0,1-5.22,2.34,69.22,69.22,0,0,0-35.27,33.46,66.52,66.52,0,0,0-6.06,18.92,64.75,64.75,0,0,0-.83,14.64,69.47,69.47,0,0,0,22,47.59A64.85,64.85,0,0,0,113,198.72a53,53,0,0,0,12.25,2c3.27.1,6.57.19,9.84,0,13-.91,25-4.76,35.49-12.64a57.09,57.09,0,0,0,20.3-28,41.33,41.33,0,0,0,2-9.45,67.54,67.54,0,0,0,.48-7.9c-.3-10.86-3.66-20.65-10.83-28.92A48.77,48.77,0,0,0,166.12,101c-2-.9-4.06-1.5-6.09-2.23A3.94,3.94,0,0,0,159.52,98.67Zm-22.63.79-.29.07a38.82,38.82,0,0,0-8.78,4c-4.39,2.76-8.11,6.21-10.4,10.93a28.38,28.38,0,0,0-2,19.21,18.77,18.77,0,0,0,4.23,8.27,13.22,13.22,0,0,0,12.72,4.57,14.51,14.51,0,0,0,11.73-9,18.15,18.15,0,0,0,.54-12.2c-1.86-6.77-4-13.48-6-20.21C138.13,103.22,137.49,101.35,136.89,99.46Z" transform="translate(0 0)"/><path class="cls-2" d="M136.89,99.46c.6,1.89,1.24,3.76,1.8,5.64,2,6.73,4.1,13.44,6,20.21a18.15,18.15,0,0,1-.54,12.2,14.51,14.51,0,0,1-11.73,9A13.22,13.22,0,0,1,119.66,142a18.77,18.77,0,0,1-4.23-8.27,28.38,28.38,0,0,1,2-19.21c2.29-4.72,6-8.17,10.4-10.93a38.82,38.82,0,0,1,8.78-4Z" transform="translate(0 0)"/></svg>